<svg width="24" height="24" viewBox="0 0 24 24" fill="none" xmlns="http://www.w3.org/2000/svg">
<path d="M13.1716 3H9C7.11438 3 6.17157 3 5.58579 3.58579C5 4.17157 5 5.11438 5 7V17C5 18.8856 5 19.8284 5.58579 20.4142C6.17157 21 7.11438 21 9 21H15C16.8856 21 17.8284 21 18.4142 20.4142C19 19.8284 19 18.8856 19 17V8.82843C19 8.41968 19 8.2153 18.9239 8.03153C18.8478 7.84776 18.7032 7.70324 18.4142 7.41421L14.5858 3.58579C14.2968 3.29676 14.1522 3.15224 13.9685 3.07612C13.7847 3 13.5803 3 13.1716 3Z" stroke="var(--main-color)"/>
<path d="M10.6727 12.7168L10.4757 13.1764L10.4757 13.1764L10.6727 12.7168ZM13.8553 14.0808L14.0523 13.6213L13.8553 14.0808ZM13.8553 15.9191L14.0523 16.3787L13.8553 15.9191ZM10.6727 17.2831L10.4757 16.8235H10.4757L10.6727 17.2831ZM10.4757 13.1764L13.6584 14.5404L14.0523 13.6213L10.8697 12.2573L10.4757 13.1764ZM13.6584 15.4595L10.4757 16.8235L10.8697 17.7427L14.0523 16.3787L13.6584 15.4595ZM8.5 13.8198V16.1801H9.5V13.8198H8.5ZM10.4757 16.8235C10.0138 17.0215 9.5 16.6827 9.5 16.1801H8.5C8.5 17.4006 9.74789 18.2234 10.8697 17.7427L10.4757 16.8235ZM13.6584 14.5404C14.0624 14.7136 14.0624 15.2864 13.6584 15.4595L14.0523 16.3787C15.2645 15.8592 15.2644 14.1408 14.0523 13.6213L13.6584 14.5404ZM10.8697 12.2573C9.74789 11.7765 8.5 12.5994 8.5 13.8198H9.5C9.5 13.3173 10.0138 12.9785 10.4757 13.1764L10.8697 12.2573Z" fill="var(--main-color)"/>
<path d="M13 3V7C13 7.94281 13 8.41421 13.2929 8.70711C13.5858 9 14.0572 9 15 9H19" stroke="var(--main-color)"/>
</svg>
